<svg xmlns="http://www.w3.org/2000/svg" viewBox="0 0 512 512">
  <defs>
    <linearGradient id="bg" x1="0%" y1="0%" x2="100%" y2="100%">
      <stop offset="0%" style="stop-color:#b8734a"/>
      <stop offset="100%" style="stop-color:#c9956e"/>
    </linearGradient>
  </defs>
  <!-- Rounded square background -->
  <rect width="512" height="512" rx="112" fill="url(#bg)"/>
  <!-- Bold radar waves -->
  <path d="M256,256 m-180,0 a180,180 0 1,1 360,0" fill="none" stroke="white" stroke-width="28" stroke-linecap="round" opacity="0.25"/>
  <path d="M256,256 m-120,0 a120,120 0 1,1 240,0" fill="none" stroke="white" stroke-width="28" stroke-linecap="round" opacity="0.4"/>
  <path d="M256,256 m-60,0 a60,60 0 1,1 120,0" fill="none" stroke="white" stroke-width="28" stroke-linecap="round" opacity="0.55"/>
  <!-- Center: bold fork icon -->
  <g transform="translate(256, 280)">
    <!-- Plate circle -->
    <circle cx="0" cy="-20" r="70" fill="white" opacity="0.95"/>
    <!-- Fork -->
    <g transform="translate(-22, -48)" fill="#b8734a" stroke="#b8734a" stroke-width="5" stroke-linecap="round">
      <line x1="0" y1="0" x2="0" y2="22"/>
      <line x1="10" y1="0" x2="10" y2="22"/>
      <line x1="20" y1="0" x2="20" y2="22"/>
      <path d="M0,22 Q0,32 10,32 L10,56" fill="none" stroke-width="6"/>
      <path d="M20,22 Q20,32 10,32" fill="none" stroke-width="5"/>
    </g>
    <!-- Knife -->
    <g transform="translate(16, -48)" fill="none" stroke="#b8734a" stroke-width="6" stroke-linecap="round" stroke-linejoin="round">
      <path d="M0,0 C12,-2 18,10 18,22 C18,28 10,30 0,30 L0,56"/>
    </g>
  </g>
</svg>
